# ProBuilder 6.0.5
# https://unity3d.com/unity/features/worldbuilding/probuilder
# 6/4/2025 5:09:47 PM

mtllib ./Torus.mtl
o Torus

g Torus
v -2.5 0 0
v -2.44291 0.3826835 0
v -2.28033 0.7071068 0
v -2.037013 0.9238795 0
v -1.75 1 0
v -1.462987 0.9238796 0
v -1.21967 0.7071068 0
v -1.05709 0.3826835 0
v -1 -8.742278E-08 0
v -1.05709 -0.3826835 0
v -1.21967 -0.7071068 0
v -1.462987 -0.9238795 0
v -1.75 -1 0
v -2.037013 -0.9238795 0
v -2.28033 -0.7071069 0
v -2.44291 -0.3826835 0
v -2.414814 0 -0.6470475
v -2.359669 0.3826835 -0.6322714
v -2.20263 0.7071068 -0.5901927
v -1.967603 0.9238795 -0.5272176
v -1.69037 1 -0.4529333
v -1.413137 0.9238796 -0.3786491
v -1.178111 0.7071068 -0.3156739
v -1.021071 0.3826835 -0.2735952
v -0.9659258 -8.742278E-08 -0.2588191
v -1.021071 -0.3826835 -0.2735952
v -1.178111 -0.7071068 -0.3156739
v -1.413137 -0.9238795 -0.378649
v -1.69037 -1 -0.4529333
v -1.967603 -0.9238795 -0.5272176
v -2.20263 -0.7071069 -0.5901927
v -2.35967 -0.3826835 -0.6322714
v -2.165063 0 -1.25
v -2.115622 0.3826835 -1.221455
v -1.974824 0.7071068 -1.140165
v -1.764105 0.9238795 -1.018506
v -1.515544 1 -0.875
v -1.266984 0.9238796 -0.7314938
v -1.056265 0.7071068 -0.609835
v -0.9154671 0.3826835 -0.5285453
v -0.8660253 -8.742278E-08 -0.5000001
v -0.9154671 -0.3826835 -0.5285453
v -1.056265 -0.7071068 -0.609835
v -1.266984 -0.9238795 -0.7314937
v -1.515544 -1 -0.875
v -1.764105 -0.9238795 -1.018506
v -1.974824 -0.7071069 -1.140165
v -2.115622 -0.3826835 -1.221455
v -1.767767 0 -1.767767
v -1.727398 0.3826835 -1.727398
v -1.612437 0.7071068 -1.612437
v -1.440385 0.9238795 -1.440385
v -1.237437 1 -1.237437
v -1.034488 0.9238796 -1.034488
v -0.8624369 0.7071068 -0.8624369
v -0.7474759 0.3826835 -0.7474757
v -0.7071068 -8.742278E-08 -0.7071068
v -0.7474759 -0.3826835 -0.7474757
v -0.8624369 -0.7071068 -0.8624368
v -1.034488 -0.9238795 -1.034488
v -1.237437 -1 -1.237437
v -1.440385 -0.9238795 -1.440386
v -1.612437 -0.7071069 -1.612437
v -1.727398 -0.3826835 -1.727398
v -1.25 0 -2.165064
v -1.221455 0.3826835 -2.115622
v -1.140165 0.7071068 -1.974824
v -1.018506 0.9238795 -1.764105
v -0.8749999 1 -1.515545
v -0.7314937 0.9238796 -1.266984
v -0.6098349 0.7071068 -1.056265
v -0.5285451 0.3826835 -0.9154672
v -0.4999999 -8.742278E-08 -0.8660255
v -0.5285451 -0.3826835 -0.9154672
v -0.6098349 -0.7071068 -1.056265
v -0.7314936 -0.9238795 -1.266984
v -0.8749999 -1 -1.515545
v -1.018506 -0.9238795 -1.764105
v -1.140165 -0.7071069 -1.974824
v -1.221455 -0.3826835 -2.115622
v -0.6470476 0 -2.414814
v -0.6322716 0.3826835 -2.359669
v -0.5901929 0.7071068 -2.20263
v -0.5272177 0.9238795 -1.967603
v -0.4529334 1 -1.69037
v -0.3786491 0.9238796 -1.413137
v -0.3156739 0.7071068 -1.178111
v -0.2735952 0.3826835 -1.021071
v -0.2588191 -8.742278E-08 -0.9659258
v -0.2735952 -0.3826835 -1.021071
v -0.3156738 -0.7071068 -1.178111
v -0.378649 -0.9238795 -1.413137
v -0.4529334 -1 -1.69037
v -0.5272177 -0.9238795 -1.967603
v -0.5901929 -0.7071069 -2.20263
v -0.6322716 -0.3826835 -2.359669
v 3.179144E-08 0 -2.5
v 3.51943E-08 0.3826835 -2.442909
v 4.488479E-08 0.7071068 -2.28033
v 5.938765E-08 0.9238795 -2.037013
v 7.649493E-08 1 -1.75
v 9.360221E-08 0.9238796 -1.462987
v 1.081051E-07 0.7071068 -1.21967
v 1.177956E-07 0.3826835 -1.057091
v 1.211984E-07 -8.742278E-08 -1
v 1.177956E-07 -0.3826835 -1.057091
v 1.081051E-07 -0.7071068 -1.21967
v 9.360222E-08 -0.9238795 -1.462987
v 7.649493E-08 -1 -1.75
v 5.938764E-08 -0.9238795 -2.037013
v 4.48848E-08 -0.7071069 -2.28033
v 3.519429E-08 -0.3826835 -2.44291
v 0.6470475 0 -2.414814
v 0.6322715 0.3826835 -2.359669
v 0.5901928 0.7071068 -2.20263
v 0.5272176 0.9238795 -1.967603
v 0.4529333 1 -1.69037
v 0.378649 0.9238796 -1.413137
v 0.3156738 0.7071068 -1.178111
v 0.2735952 0.3826835 -1.021071
v 0.2588191 -8.742278E-08 -0.9659258
v 0.2735952 -0.3826835 -1.021071
v 0.3156738 -0.7071068 -1.178111
v 0.378649 -0.9238795 -1.413137
v 0.4529333 -1 -1.69037
v 0.5272176 -0.9238795 -1.967603
v 0.5901928 -0.7071069 -2.20263
v 0.6322715 -0.3826835 -2.359669
v 1.25 0 -2.165063
v 1.221455 0.3826835 -2.115622
v 1.140165 0.7071068 -1.974824
v 1.018506 0.9238795 -1.764105
v 0.8750001 1 -1.515544
v 0.7314938 0.9238796 -1.266984
v 0.609835 0.7071068 -1.056265
v 0.5285453 0.3826835 -0.9154671
v 0.5 -8.742278E-08 -0.8660254
v 0.5285453 -0.3826835 -0.9154671
v 0.609835 -0.7071068 -1.056265
v 0.7314937 -0.9238795 -1.266984
v 0.8750001 -1 -1.515544
v 1.018507 -0.9238795 -1.764105
v 1.140165 -0.7071069 -1.974824
v 1.221455 -0.3826835 -2.115622
v 1.767767 0 -1.767767
v 1.727398 0.3826835 -1.727398
v 1.612437 0.7071068 -1.612437
v 1.440385 0.9238795 -1.440385
v 1.237437 1 -1.237437
v 1.034488 0.9238796 -1.034488
v 0.862437 0.7071068 -0.8624369
v 0.7474759 0.3826835 -0.7474759
v 0.7071068 -8.742278E-08 -0.7071068
v 0.7474759 -0.3826835 -0.7474759
v 0.8624369 -0.7071068 -0.8624369
v 1.034488 -0.9238795 -1.034488
v 1.237437 -1 -1.237437
v 1.440385 -0.9238795 -1.440385
v 1.612437 -0.7071069 -1.612437
v 1.727398 -0.3826835 -1.727398
v 2.165063 0 -1.25
v 2.115622 0.3826835 -1.221455
v 1.974824 0.7071068 -1.140165
v 1.764105 0.9238795 -1.018506
v 1.515544 1 -0.8750001
v 1.266984 0.9238796 -0.7314938
v 1.056265 0.7071068 -0.609835
v 0.9154671 0.3826835 -0.5285453
v 0.8660254 -8.742278E-08 -0.5000001
v 0.9154671 -0.3826835 -0.5285453
v 1.056265 -0.7071068 -0.609835
v 1.266984 -0.9238795 -0.7314938
v 1.515544 -1 -0.8750001
v 1.764105 -0.9238795 -1.018507
v 1.974824 -0.7071069 -1.140165
v 2.115622 -0.3826835 -1.221455
v 2.414814 0 -0.6470479
v 2.359669 0.3826835 -0.6322718
v 2.20263 0.7071068 -0.590193
v 1.967603 0.9238795 -0.5272179
v 1.69037 1 -0.4529335
v 1.413137 0.9238796 -0.3786491
v 1.178111 0.7071068 -0.3156739
v 1.021071 0.3826835 -0.2735952
v 0.9659259 -8.742278E-08 -0.2588191
v 1.021071 -0.3826835 -0.2735952
v 1.178111 -0.7071068 -0.3156739
v 1.413137 -0.9238795 -0.3786491
v 1.69037 -1 -0.4529335
v 1.967603 -0.9238795 -0.5272179
v 2.20263 -0.7071069 -0.590193
v 2.359669 -0.3826835 -0.6322718
v 2.5 0 8.742278E-08
v 2.44291 0.3826835 9.241378E-08
v 2.28033 0.7071068 1.066269E-07
v 2.037013 0.9238795 1.278984E-07
v 1.75 1 1.529899E-07
v 1.462987 0.9238796 1.780813E-07
v 1.21967 0.7071068 1.993528E-07
v 1.05709 0.3826835 2.135659E-07
v 1 -8.742278E-08 2.185569E-07
v 1.05709 -0.3826835 2.135659E-07
v 1.21967 -0.7071068 1.993528E-07
v 1.462987 -0.9238795 1.780813E-07
v 1.75 -1 1.529899E-07
v 2.037013 -0.9238795 1.278984E-07
v 2.28033 -0.7071069 1.066269E-07
v 2.44291 -0.3826835 9.241377E-08
v 2.414814 0 0.6470478
v 2.359669 0.3826835 0.6322716
v 2.20263 0.7071068 0.5901929
v 1.967603 0.9238795 0.5272177
v 1.69037 1 0.4529334
v 1.413137 0.9238796 0.378649
v 1.178111 0.7071068 0.3156738
v 1.021071 0.3826835 0.2735951
v 0.9659259 -8.742278E-08 0.258819
v 1.021071 -0.3826835 0.2735951
v 1.178111 -0.7071068 0.3156738
v 1.413137 -0.9238795 0.378649
v 1.69037 -1 0.4529334
v 1.967603 -0.9238795 0.5272177
v 2.20263 -0.7071069 0.5901929
v 2.359669 -0.3826835 0.6322716
v 2.165064 0 1.25
v 2.115622 0.3826835 1.221455
v 1.974824 0.7071068 1.140165
v 1.764105 0.9238795 1.018506
v 1.515544 1 0.8749999
v 1.266984 0.9238796 0.7314937
v 1.056265 0.7071068 0.609835
v 0.915467 0.3826835 0.5285453
v 0.8660252 -8.742278E-08 0.5000001
v 0.915467 -0.3826835 0.5285453
v 1.056265 -0.7071068 0.609835
v 1.266984 -0.9238795 0.7314937
v 1.515544 -1 0.8749999
v 1.764105 -0.9238795 1.018506
v 1.974824 -0.7071069 1.140165
v 2.115622 -0.3826835 1.221455
v 1.767767 0 1.767767
v 1.727398 0.3826835 1.727398
v 1.612437 0.7071068 1.612437
v 1.440386 0.9238795 1.440385
v 1.237437 1 1.237437
v 1.034488 0.9238796 1.034488
v 0.862437 0.7071068 0.8624369
v 0.7474759 0.3826835 0.7474759
v 0.7071068 -8.742278E-08 0.7071068
v 0.7474759 -0.3826835 0.7474759
v 0.8624369 -0.7071068 0.8624369
v 1.034488 -0.9238795 1.034488
v 1.237437 -1 1.237437
v 1.440386 -0.9238795 1.440385
v 1.612437 -0.7071069 1.612437
v 1.727398 -0.3826835 1.727398
v 1.25 0 2.165064
v 1.221455 0.3826835 2.115622
v 1.140165 0.7071068 1.974824
v 1.018506 0.9238795 1.764105
v 0.8749998 1 1.515545
v 0.7314935 0.9238796 1.266984
v 0.6098348 0.7071068 1.056265
v 0.528545 0.3826835 0.9154671
v 0.4999998 -8.742278E-08 0.8660254
v 0.528545 -0.3826835 0.9154671
v 0.6098348 -0.7071068 1.056265
v 0.7314935 -0.9238795 1.266984
v 0.8749998 -1 1.515545
v 1.018506 -0.9238795 1.764105
v 1.140165 -0.7071069 1.974824
v 1.221455 -0.3826835 2.115622
v 0.6470475 0 2.414815
v 0.6322714 0.3826835 2.35967
v 0.5901927 0.7071068 2.20263
v 0.5272175 0.9238795 1.967603
v 0.4529332 1 1.69037
v 0.3786489 0.9238796 1.413137
v 0.3156737 0.7071068 1.178111
v 0.2735951 0.3826835 1.021071
v 0.258819 -8.742278E-08 0.9659259
v 0.2735951 -0.3826835 1.021071
v 0.3156737 -0.7071068 1.178111
v 0.3786489 -0.9238795 1.413137
v 0.4529332 -1 1.69037
v 0.5272176 -0.9238795 1.967603
v 0.5901927 -0.7071069 2.20263
v 0.6322714 -0.3826835 2.35967
v -6.557202E-08 0 2.5
v -6.216917E-08 0.3826835 2.442909
v -5.247868E-08 0.7071068 2.28033
v -3.797582E-08 0.9238795 2.037013
v -2.086854E-08 1 1.75
v -3.76126E-09 0.9238796 1.462987
v 1.074159E-08 0.7071068 1.21967
v 2.043209E-08 0.3826835 1.057091
v 2.383494E-08 -8.742278E-08 1
v 2.043209E-08 -0.3826835 1.057091
v 1.07416E-08 -0.7071068 1.21967
v -3.761251E-09 -0.9238795 1.462987
v -2.086854E-08 -1 1.75
v -3.797583E-08 -0.9238795 2.037013
v -5.247867E-08 -0.7071069 2.28033
v -6.216918E-08 -0.3826835 2.44291
v -0.6470476 0 2.414814
v -0.6322715 0.3826835 2.359669
v -0.5901928 0.7071068 2.20263
v -0.5272176 0.9238795 1.967603
v -0.4529333 1 1.69037
v -0.378649 0.9238796 1.413137
v -0.3156738 0.7071068 1.178111
v -0.2735951 0.3826835 1.021071
v -0.258819 -8.742278E-08 0.9659258
v -0.2735951 -0.3826835 1.021071
v -0.3156738 -0.7071068 1.178111
v -0.3786489 -0.9238795 1.413137
v -0.4529333 -1 1.69037
v -0.5272176 -0.9238795 1.967603
v -0.5901928 -0.7071069 2.20263
v -0.6322715 -0.3826835 2.359669
v -1.25 0 2.165064
v -1.221455 0.3826835 2.115622
v -1.140165 0.7071068 1.974824
v -1.018506 0.9238795 1.764105
v -0.8749998 1 1.515545
v -0.7314935 0.9238796 1.266984
v -0.6098348 0.7071068 1.056265
v -0.528545 0.3826835 0.9154672
v -0.4999998 -8.742278E-08 0.8660255
v -0.528545 -0.3826835 0.9154672
v -0.6098348 -0.7071068 1.056265
v -0.7314935 -0.9238795 1.266984
v -0.8749998 -1 1.515545
v -1.018506 -0.9238795 1.764105
v -1.140165 -0.7071069 1.974824
v -1.221455 -0.3826835 2.115622
v -1.767767 0 1.767767
v -1.727398 0.3826835 1.727398
v -1.612437 0.7071068 1.612437
v -1.440385 0.9238795 1.440386
v -1.237437 1 1.237437
v -1.034488 0.9238796 1.034488
v -0.8624367 0.7071068 0.862437
v -0.7474756 0.3826835 0.7474759
v -0.7071066 -8.742278E-08 0.7071069
v -0.7474756 -0.3826835 0.7474759
v -0.8624367 -0.7071068 0.862437
v -1.034488 -0.9238795 1.034488
v -1.237437 -1 1.237437
v -1.440385 -0.9238795 1.440386
v -1.612437 -0.7071069 1.612437
v -1.727398 -0.3826835 1.727398
v -2.165063 0 1.25
v -2.115622 0.3826835 1.221455
v -1.974824 0.7071068 1.140165
v -1.764104 0.9238795 1.018507
v -1.515544 1 0.8750003
v -1.266984 0.9238796 0.731494
v -1.056265 0.7071068 0.6098352
v -0.915467 0.3826835 0.5285454
v -0.8660253 -8.742278E-08 0.5000002
v -0.915467 -0.3826835 0.5285454
v -1.056265 -0.7071068 0.6098351
v -1.266984 -0.9238795 0.7314939
v -1.515544 -1 0.8750003
v -1.764105 -0.9238795 1.018507
v -1.974823 -0.7071069 1.140165
v -2.115622 -0.3826835 1.221455
v -2.414814 0 0.6470481
v -2.359669 0.3826835 0.632272
v -2.20263 0.7071068 0.5901933
v -1.967603 0.9238795 0.5272181
v -1.69037 1 0.4529337
v -1.413137 0.9238796 0.3786494
v -1.178111 0.7071068 0.3156742
v -1.021071 0.3826835 0.2735955
v -0.9659258 -8.742278E-08 0.2588194
v -1.021071 -0.3826835 0.2735955
v -1.178111 -0.7071068 0.3156741
v -1.413137 -0.9238795 0.3786494
v -1.69037 -1 0.4529337
v -1.967603 -0.9238795 0.5272181
v -2.20263 -0.7071069 0.5901933
v -2.359669 -0.3826835 0.632272

vt 0 0
vt 0 0.2870126
vt 0 0.5303301
vt 2.28033 0
vt 2.037013 0
vt 1.75 0
vt 1.462987 0
vt 1.21967 0
vt 0 -0.2870126
vt 0 -0.5303301
vt -1.21967 0
vt -1.462987 0
vt -1.75 0
vt -2.037013 0
vt -2.28033 0
vt -0.6470475 0
vt -0.6322714 0.2870126
vt -0.5901927 0.5303301
vt 2.20263 -0.5901927
vt 1.967603 -0.5272176
vt 1.69037 -0.4529333
vt 1.413137 -0.3786491
vt 1.178111 -0.3156739
vt 0.3156739 0.5303301
vt 0.2735952 0.2870126
vt 0.2588191 -6.556708E-08
vt 0.2735952 -0.2870126
vt 0.3156739 -0.5303301
vt -1.178111 -0.3156739
vt -1.413137 -0.378649
vt -1.69037 -0.4529333
vt -1.967603 -0.5272176
vt -2.20263 -0.5901927
vt -0.5901927 -0.5303302
vt -0.6322714 -0.2870126
vt -1.25 0
vt -1.221455 0.2870126
vt -1.140165 0.5303301
vt 1.974824 -1.140165
vt 1.764105 -1.018506
vt 1.515544 -0.875
vt 1.266984 -0.7314938
vt 1.056265 -0.609835
vt 0.609835 0.5303301
vt 0.5285453 0.2870126
vt 0.5000001 -6.556708E-08
vt 0.5285453 -0.2870126
vt 0.609835 -0.5303301
vt -1.056265 -0.609835
vt -1.266984 -0.7314937
vt -1.515544 -0.875
vt -1.764105 -1.018506
vt -1.974824 -1.140165
vt -1.140165 -0.5303302
vt -1.221455 -0.2870126
vt -1.767767 0
vt -1.727398 0.2870126
vt -1.612437 0.5303301
vt 1.612437 -1.612437
vt 1.440385 -1.440385
vt 1.237437 -1.237437
vt 1.034488 -1.034488
vt 0.8624369 -0.8624369
vt 0.8624369 0.5303301
vt 0.7474757 0.2870126
vt 0.7071068 -6.556708E-08
vt 0.7474757 -0.2870126
vt 0.8624368 -0.5303301
vt -0.8624369 -0.8624368
vt -1.034488 -1.034488
vt -1.237437 -1.237437
vt -1.440385 -1.440386
vt -1.612437 -1.612437
vt -1.612437 -0.5303302
vt -1.727398 -0.2870126
vt 1.767767 0
vt 1.727398 0.2870126
vt 1.612437 0.5303301
vt -0.8624369 0.5303301
vt -0.7474759 0.2870126
vt -0.7071068 -6.556708E-08
vt -0.7474759 -0.2870126
vt -0.8624369 -0.5303301
vt 1.612437 -0.5303302
vt 1.727398 -0.2870126
vt 1.25 0
vt 1.221455 0.2870126
vt 1.140165 0.5303301
vt 1.140165 -1.974824
vt 1.018506 -1.764105
vt 0.8749999 -1.515545
vt 0.7314937 -1.266984
vt 0.6098349 -1.056265
vt -0.6098349 0.5303301
vt -0.5285451 0.2870126
vt -0.4999999 -6.556708E-08
vt -0.5285451 -0.2870126
vt -0.6098349 -0.5303301
vt -0.6098349 -1.056265
vt -0.7314936 -1.266984
vt -0.8749999 -1.515545
vt -1.018506 -1.764105
vt -1.140165 -1.974824
vt 1.140165 -0.5303302
vt 1.221455 -0.2870126
vt 0.6470476 0
vt 0.6322716 0.2870126
vt 0.5901929 0.5303301
vt 0.5901929 -2.20263
vt 0.5272177 -1.967603
vt 0.4529334 -1.69037
vt 0.3786491 -1.413137
vt 0.3156739 -1.178111
vt -0.3156739 0.5303301
vt -0.2735952 0.2870126
vt -0.2588191 -6.556708E-08
vt -0.2735952 -0.2870126
vt -0.3156738 -0.5303301
vt -0.3156738 -1.178111
vt -0.378649 -1.413137
vt -0.4529334 -1.69037
vt -0.5272177 -1.967603
vt -0.5901929 -2.20263
vt 0.5901929 -0.5303302
vt 0.6322716 -0.2870126
vt -4.488479E-08 -2.28033
vt -5.938765E-08 -2.037013
vt -7.649493E-08 -1.75
vt -9.360221E-08 -1.462987
vt -1.081051E-07 -1.21967
vt -1.25 0
vt -0.8750001 -1.515544
vt 0.8750001 -1.515544
vt -0.5000001 -6.556708E-08
vt -2.20263 0.5901929
vt -1.967603 0.5272177
vt -1.69037 0.4529334
vt -1.413137 0.378649
vt -1.178111 0.3156738
vt 1.178111 0.3156738
vt 1.413137 0.378649
vt 1.69037 0.4529334
vt 1.967603 0.5272177
vt 2.20263 0.5901929
vt -1.974824 1.140165
vt -1.764105 1.018506
vt -1.515544 0.8749999
vt -1.266984 0.7314937
vt -1.056265 0.609835
vt 1.056265 0.609835
vt 1.266984 0.7314937
vt 1.515544 0.8749999
vt 1.764105 1.018506
vt 1.974824 1.140165
vt -1.612437 1.612437
vt -1.440386 1.440385
vt -1.237437 1.237437
vt -1.034488 1.034488
vt -0.862437 0.8624369
vt 0.8624369 0.8624369
vt 1.034488 1.034488
vt 1.237437 1.237437
vt 1.440386 1.440385
vt 1.612437 1.612437
vt 1.25 0
vt -1.140165 1.974824
vt -1.018506 1.764105
vt -0.8749998 1.515545
vt -0.7314935 1.266984
vt -0.6098348 1.056265
vt 0.6098348 1.056265
vt 0.7314935 1.266984
vt 0.8749998 1.515545
vt 1.018506 1.764105
vt 1.140165 1.974824
vt -0.5901927 2.20263
vt -0.5272175 1.967603
vt -0.4529332 1.69037
vt -0.3786489 1.413137
vt -0.3156737 1.178111
vt 0.3156737 1.178111
vt 0.3786489 1.413137
vt 0.4529332 1.69037
vt 0.5272176 1.967603
vt 0.5901927 2.20263
vt 5.247868E-08 2.28033
vt 3.797582E-08 2.037013
vt 2.086854E-08 1.75
vt 3.76126E-09 1.462987
vt -1.074159E-08 1.21967
vt 0.4999998 -6.556708E-08
vt 1.515544 0.8750003
vt -1.515544 0.8750003

vn -1 1.785207E-07 3.798313E-09
vn -0.953412 0.3016711 7.982852E-08
vn -0.7936051 0.6084331 3.622677E-08
vn -0.4733762 0.8808603 -1.919154E-09
vn -1.002632E-07 1 1.928138E-09
vn 0.4733763 0.8808603 -1.535323E-08
vn 0.7936052 0.608433 7.817356E-08
vn 0.953412 0.3016713 -2.660951E-08
vn 1 -1.899157E-08 -1.139494E-08
vn 0.953412 -0.3016712 -2.280815E-08
vn 0.7936053 -0.6084329 4.194678E-08
vn 0.4733763 -0.8808603 -2.782773E-08
vn -4.627532E-08 -1 -1.060476E-08
vn -0.4733763 -0.8808603 9.595768E-09
vn -0.7936051 -0.6084332 -2.66934E-08
vn -0.9534119 -0.3016714 5.702037E-08
vn -0.9659258 2.810752E-07 -0.2588192
vn -0.9209253 0.3016711 -0.2467613
vn -0.7665638 0.608433 -0.2054002
vn -0.4572464 0.8808603 -0.1225188
vn 0.4572464 0.8808603 0.1225188
vn 0.7665638 0.6084329 0.2054002
vn 0.9209253 0.3016712 0.2467612
vn 0.9659258 -4.178145E-08 0.2588191
vn 0.9209253 -0.3016712 0.2467613
vn 0.7665639 -0.6084328 0.2054002
vn 0.4572464 -0.8808603 0.1225188
vn -0.4572464 -0.8808603 -0.1225188
vn -0.7665637 -0.6084332 -0.2054001
vn -0.9209253 -0.3016712 -0.2467613
vn -0.8660254 3.798313E-08 -0.4999999
vn -0.8256791 0.3016711 -0.4767059
vn -0.6872823 0.608433 -0.3968026
vn -0.409956 0.8808603 -0.2366882
vn 0.4099559 0.8808603 0.2366881
vn 0.6872823 0.608433 0.3968026
vn 0.8256789 0.3016713 0.4767061
vn 0.8660253 -4.937808E-08 0.5000001
vn 0.825679 -0.3016712 0.4767061
vn 0.6872824 -0.6084329 0.3968026
vn 0.4099559 -0.8808603 0.2366882
vn -0.4099559 -0.8808603 -0.2366881
vn -0.6872823 -0.6084331 -0.3968025
vn -0.8256791 -0.301671 -0.4767061
vn -0.7071069 -4.557976E-08 -0.7071067
vn -0.6741641 0.3016713 -0.6741641
vn -0.5611637 0.608433 -0.5611636
vn -0.3347277 0.8808603 -0.3347276
vn 0.3347276 0.8808603 0.3347276
vn 0.5611636 0.6084331 0.5611636
vn 0.6741641 0.3016713 0.6741641
vn 0.7071068 -3.418483E-08 0.7071067
vn 0.6741642 -0.3016712 0.674164
vn 0.5611637 -0.6084329 0.5611637
vn 0.3347276 -0.8808603 0.3347276
vn -0.3347276 -0.8808603 -0.3347276
vn -0.5611637 -0.608433 -0.5611637
vn -0.6741641 -0.3016711 -0.6741641
vn -0.4999999 3.798313E-08 -0.8660254
vn -0.4767059 0.3016713 -0.825679
vn -0.3968025 0.608433 -0.6872824
vn -0.2366882 0.8808603 -0.409956
vn 0.2366882 0.8808603 0.4099559
vn 0.3968026 0.608433 0.6872823
vn 0.476706 0.3016713 0.8256789
vn 0.5 -1.899157E-08 0.8660254
vn 0.476706 -0.3016712 0.825679
vn 0.3968026 -0.6084329 0.6872824
vn 0.2366881 -0.8808603 0.4099559
vn -0.2366881 -0.8808603 -0.4099559
vn -0.3968026 -0.608433 -0.6872824
vn -0.4767059 -0.3016713 -0.825679
vn -0.258819 1.063528E-07 -0.9659259
vn -0.2467611 0.3016714 -0.9209253
vn -0.2054 0.608433 -0.7665638
vn -0.1225188 0.8808602 -0.4572465
vn 0.1225188 0.8808603 0.4572464
vn 0.2054002 0.608433 0.7665638
vn 0.2467613 0.3016713 0.9209253
vn 0.258819 1.139494E-08 0.9659259
vn 0.2467613 -0.3016712 0.9209253
vn 0.2054002 -0.6084328 0.7665639
vn 0.1225188 -0.8808603 0.4572464
vn -0.1225187 -0.8808603 -0.4572465
vn -0.2054001 -0.608433 -0.7665638
vn -0.2467612 -0.3016713 -0.9209253
vn 6.457133E-08 2.734786E-07 -1
vn 4.56163E-08 0.3016714 -0.9534119
vn 7.626688E-09 0.608433 -0.7936053
vn 1.919154E-08 0.8808602 -0.4733765
vn 1.343408E-08 0.8808603 0.4733764
vn 5.720016E-09 0.6084329 0.7936053
vn -8.743124E-08 0.3016714 0.9534119
vn -6.077302E-08 -3.038651E-08 1
vn -2.090747E-08 -0.3016713 0.953412
vn -5.720016E-08 -0.6084328 0.7936054
vn -3.934265E-08 -0.8808603 0.4733764
vn -1.343408E-08 -0.8808603 -0.4733763
vn -2.860008E-08 -0.6084332 -0.7936051
vn 1.520543E-08 -0.3016713 -0.953412
vn 0.258819 1.177477E-07 -0.9659259
vn 0.246761 0.3016713 -0.9209253
vn 0.2054 0.6084329 -0.7665638
vn 0.1225188 0.8808602 -0.4572466
vn -0.1225188 0.8808603 0.4572464
vn -0.2054003 0.6084331 0.7665638
vn -0.2467614 0.3016714 0.9209252
vn -0.2588192 -7.596627E-08 0.9659258
vn -0.2467614 -0.3016712 0.9209253
vn -0.2054002 -0.6084328 0.7665639
vn -0.1225188 -0.8808603 0.4572465
vn 0.1225188 -0.8808603 -0.4572464
vn 0.2054001 -0.6084331 -0.7665638
vn 0.2467612 -0.3016711 -0.9209253
vn 0.5 9.495784E-08 -0.8660254
vn 0.476706 0.3016713 -0.825679
vn 0.3968026 0.6084331 -0.6872823
vn 0.2366882 0.8808603 -0.4099559
vn -0.2366882 0.8808603 0.4099559
vn -0.3968026 0.608433 0.6872823
vn -0.476706 0.3016713 0.825679
vn -0.4999999 -5.317639E-08 0.8660254
vn -0.4767059 -0.3016713 0.8256791
vn -0.3968025 -0.6084329 0.6872824
vn -0.2366882 -0.8808603 0.409956
vn 0.2366882 -0.8808603 -0.4099559
vn 0.3968026 -0.6084331 -0.6872822
vn 0.476706 -0.3016711 -0.8256791
vn 0.7071068 1.177477E-07 -0.7071068
vn 0.6741642 0.3016714 -0.674164
vn 0.5611637 0.6084329 -0.5611637
vn 0.3347276 0.8808603 -0.3347277
vn -0.3347276 0.8808603 0.3347275
vn -0.5611636 0.6084331 0.5611636
vn -0.6741641 0.3016713 0.6741642
vn -0.7071067 -4.937808E-08 0.7071068
vn -0.674164 -0.3016713 0.6741641
vn -0.5611637 -0.6084329 0.5611637
vn -0.3347276 -0.8808603 0.3347276
vn 0.3347276 -0.8808603 -0.3347276
vn 0.5611637 -0.6084331 -0.5611635
vn 0.6741641 -0.3016713 -0.6741641
vn 0.8660254 2.54487E-07 -0.5000001
vn 0.8256789 0.3016713 -0.4767061
vn 0.6872823 0.6084329 -0.3968027
vn 0.4099559 0.8808603 -0.2366882
vn -0.4099559 0.8808603 0.2366882
vn -0.6872823 0.6084329 0.3968028
vn -0.8256789 0.3016713 0.476706
vn -0.8660253 -6.457132E-08 0.5000001
vn -0.825679 -0.3016712 0.476706
vn -0.6872823 -0.6084329 0.3968027
vn -0.409956 -0.8808603 0.2366882
vn 0.4099559 -0.8808603 -0.2366882
vn 0.6872822 -0.6084331 -0.3968027
vn 0.825679 -0.3016713 -0.476706
vn 0.9659258 9.115952E-08 -0.2588191
vn 0.9209253 0.3016713 -0.2467613
vn 0.7665637 0.6084331 -0.2054002
vn 0.4572465 0.8808603 -0.1225189
vn -0.4572464 0.8808603 0.1225188
vn -0.7665638 0.6084331 0.2054001
vn -0.9209253 0.3016713 0.2467611
vn -0.9659259 -1.899157E-08 0.2588189
vn -0.9209253 -0.3016712 0.2467611
vn -0.7665639 -0.6084329 0.2054001
vn -0.4572465 -0.8808603 0.1225188
vn 0.4572465 -0.8808603 -0.1225188
vn 0.7665638 -0.6084331 -0.2054001
vn 0.9209253 -0.3016712 -0.2467612
vn 0.8660254 4.937808E-08 0.4999999
vn -0.8660253 0 -0.5000001
vn 0.5000001 6.457133E-08 0.8660254

usemtl ProBuilderDefault
f 2/2/2 18/17/18 17/16/17 1/1/1
f 3/3/3 19/18/19 18/17/18 2/2/2
f 4/5/4 20/20/20 19/19/19 3/4/3
f 5/6/5 21/21/5 20/20/20 4/5/4
f 6/7/6 22/22/21 21/21/5 5/6/5
f 7/8/7 23/23/22 22/22/21 6/7/6
f 8/2/8 24/25/23 23/24/22 7/3/7
f 9/1/9 25/26/24 24/25/23 8/2/8
f 10/9/10 26/27/25 25/26/24 9/1/9
f 11/10/11 27/28/26 26/27/25 10/9/10
f 12/12/12 28/30/27 27/29/26 11/11/11
f 13/13/13 29/31/13 28/30/27 12/12/12
f 14/14/14 30/32/28 29/31/13 13/13/13
f 15/15/15 31/33/29 30/32/28 14/14/14
f 16/9/16 32/35/30 31/34/29 15/10/15
f 1/1/1 17/16/17 32/35/30 16/9/16
f 18/17/18 34/37/32 33/36/31 17/16/17
f 19/18/19 35/38/33 34/37/32 18/17/18
f 20/20/20 36/40/34 35/39/33 19/19/19
f 21/21/5 37/41/5 36/40/34 20/20/20
f 22/22/21 38/42/35 37/41/5 21/21/5
f 23/23/22 39/43/36 38/42/35 22/22/21
f 24/25/23 40/45/37 39/44/36 23/24/22
f 25/26/24 41/46/38 40/45/37 24/25/23
f 26/27/25 42/47/39 41/46/38 25/26/24
f 27/28/26 43/48/40 42/47/39 26/27/25
f 28/30/27 44/50/41 43/49/40 27/29/26
f 29/31/13 45/51/13 44/50/41 28/30/27
f 30/32/28 46/52/42 45/51/13 29/31/13
f 31/33/29 47/53/43 46/52/42 30/32/28
f 32/35/30 48/55/44 47/54/43 31/34/29
f 17/16/17 33/36/31 48/55/44 32/35/30
f 34/37/32 50/57/46 49/56/45 33/36/31
f 35/38/33 51/58/47 50/57/46 34/37/32
f 36/40/34 52/60/48 51/59/47 35/39/33
f 37/41/5 53/61/5 52/60/48 36/40/34
f 38/42/35 54/62/49 53/61/5 37/41/5
f 39/43/36 55/63/50 54/62/49 38/42/35
f 40/45/37 56/65/51 55/64/50 39/44/36
f 41/46/38 57/66/52 56/65/51 40/45/37
f 42/47/39 58/67/53 57/66/52 41/46/38
f 43/48/40 59/68/54 58/67/53 42/47/39
f 44/50/41 60/70/55 59/69/54 43/49/40
f 45/51/13 61/71/13 60/70/55 44/50/41
f 46/52/42 62/72/56 61/71/13 45/51/13
f 47/53/43 63/73/57 62/72/56 46/52/42
f 48/55/44 64/75/58 63/74/57 47/54/43
f 33/36/31 49/56/45 64/75/58 48/55/44
f 50/77/46 66/87/60 65/86/59 49/76/45
f 51/78/47 67/88/61 66/87/60 50/77/46
f 52/60/48 68/90/62 67/89/61 51/59/47
f 53/61/5 69/91/5 68/90/62 52/60/48
f 54/62/49 70/92/63 69/91/5 53/61/5
f 55/63/50 71/93/64 70/92/63 54/62/49
f 56/80/51 72/95/65 71/94/64 55/79/50
f 57/81/52 73/96/66 72/95/65 56/80/51
f 58/82/53 74/97/67 73/96/66 57/81/52
f 59/83/54 75/98/68 74/97/67 58/82/53
f 60/70/55 76/100/69 75/99/68 59/69/54
f 61/71/13 77/101/13 76/100/69 60/70/55
f 62/72/56 78/102/70 77/101/13 61/71/13
f 63/73/57 79/103/71 78/102/70 62/72/56
f 64/85/58 80/105/72 79/104/71 63/84/57
f 49/76/45 65/86/59 80/105/72 64/85/58
f 66/87/60 82/107/74 81/106/73 65/86/59
f 67/88/61 83/108/75 82/107/74 66/87/60
f 68/90/62 84/110/76 83/109/75 67/89/61
f 69/91/5 85/111/5 84/110/76 68/90/62
f 70/92/63 86/112/77 85/111/5 69/91/5
f 71/93/64 87/113/78 86/112/77 70/92/63
f 72/95/65 88/115/79 87/114/78 71/94/64
f 73/96/66 89/116/80 88/115/79 72/95/65
f 74/97/67 90/117/81 89/116/80 73/96/66
f 75/98/68 91/118/82 90/117/81 74/97/67
f 76/100/69 92/120/83 91/119/82 75/99/68
f 77/101/13 93/121/13 92/120/83 76/100/69
f 78/102/70 94/122/84 93/121/13 77/101/13
f 79/103/71 95/123/85 94/122/84 78/102/70
f 80/105/72 96/125/86 95/124/85 79/104/71
f 65/86/59 81/106/73 96/125/86 80/105/72
f 82/107/74 98/2/88 97/1/87 81/106/73
f 83/108/75 99/3/89 98/2/88 82/107/74
f 84/110/76 100/127/90 99/126/89 83/109/75
f 85/111/5 101/128/5 100/127/90 84/110/76
f 86/112/77 102/129/91 101/128/5 85/111/5
f 87/113/78 103/130/92 102/129/91 86/112/77
f 88/115/79 104/2/93 103/3/92 87/114/78
f 89/116/80 105/1/94 104/2/93 88/115/79
f 90/117/81 106/9/95 105/1/94 89/116/80
f 91/118/82 107/10/96 106/9/95 90/117/81
f 92/120/83 108/129/97 107/130/96 91/119/82
f 93/121/13 109/128/13 108/129/97 92/120/83
f 94/122/84 110/127/98 109/128/13 93/121/13
f 95/123/85 111/126/99 110/127/98 94/122/84
f 96/125/86 112/9/100 111/10/99 95/124/85
f 81/106/73 97/1/87 112/9/100 96/125/86
f 98/2/88 114/17/102 113/16/101 97/1/87
f 99/3/89 115/18/103 114/17/102 98/2/88
f 100/127/90 116/122/104 115/123/103 99/126/89
f 101/128/5 117/121/5 116/122/104 100/127/90
f 102/129/91 118/120/105 117/121/5 101/128/5
f 103/130/92 119/119/106 118/120/105 102/129/91
f 104/2/93 120/25/107 119/24/106 103/3/92
f 105/1/94 121/26/108 120/25/107 104/2/93
f 106/9/95 122/27/109 121/26/108 105/1/94
f 107/10/96 123/28/110 122/27/109 106/9/95
f 108/129/97 124/112/111 123/113/110 107/130/96
f 109/128/13 125/111/13 124/112/111 108/129/97
f 110/127/98 126/110/112 125/111/13 109/128/13
f 111/126/99 127/109/113 126/110/112 110/127/98
f 112/9/100 128/35/114 127/34/113 111/10/99
f 97/1/87 113/16/101 128/35/114 112/9/100
f 114/17/102 130/37/116 129/131/115 113/16/101
f 115/18/103 131/38/117 130/37/116 114/17/102
f 116/122/104 132/102/118 131/103/117 115/123/103
f 117/121/5 133/132/5 132/102/118 116/122/104
f 118/120/105 134/100/119 133/132/5 117/121/5
f 119/119/106 135/99/120 134/100/119 118/120/105
f 120/25/107 136/45/121 135/44/120 119/24/106
f 121/26/108 137/46/122 136/45/121 120/25/107
f 122/27/109 138/47/123 137/46/122 121/26/108
f 123/28/110 139/48/124 138/47/123 122/27/109
f 124/112/111 140/92/125 139/93/124 123/113/110
f 125/111/13 141/133/13 140/92/125 124/112/111
f 126/110/112 142/90/126 141/133/13 125/111/13
f 127/109/113 143/89/127 142/90/126 126/110/112
f 128/35/114 144/55/128 143/54/127 127/34/113
f 113/16/101 129/131/115 144/55/128 128/35/114
f 130/37/116 146/57/130 145/56/129 129/131/115
f 131/38/117 147/58/131 146/57/130 130/37/116
f 132/102/118 148/72/132 147/73/131 131/103/117
f 133/132/5 149/71/5 148/72/132 132/102/118
f 134/100/119 150/70/133 149/71/5 133/132/5
f 135/99/120 151/69/134 150/70/133 134/100/119
f 136/45/121 152/65/135 151/64/134 135/44/120
f 137/46/122 153/66/136 152/65/135 136/45/121
f 138/47/123 154/67/137 153/66/136 137/46/122
f 139/48/124 155/68/138 154/67/137 138/47/123
f 140/92/125 156/62/139 155/63/138 139/93/124
f 141/133/13 157/61/13 156/62/139 140/92/125
f 142/90/126 158/60/140 157/61/13 141/133/13
f 143/89/127 159/59/141 158/60/140 142/90/126
f 144/55/128 160/75/142 159/74/141 143/54/127
f 129/131/115 145/56/129 160/75/142 144/55/128
f 146/77/130 162/87/144 161/86/143 145/76/129
f 147/78/131 163/88/145 162/87/144 146/77/130
f 148/72/132 164/52/146 163/53/145 147/73/131
f 149/71/5 165/51/5 164/52/146 148/72/132
f 150/70/133 166/50/147 165/51/5 149/71/5
f 151/69/134 167/49/148 166/50/147 150/70/133
f 152/80/135 168/95/149 167/94/148 151/79/134
f 153/81/136 169/134/150 168/95/149 152/80/135
f 154/82/137 170/97/151 169/134/150 153/81/136
f 155/83/138 171/98/152 170/97/151 154/82/137
f 156/62/139 172/42/153 171/43/152 155/63/138
f 157/61/13 173/41/13 172/42/153 156/62/139
f 158/60/140 174/40/154 173/41/13 157/61/13
f 159/59/141 175/39/155 174/40/154 158/60/140
f 160/85/142 176/105/156 175/104/155 159/84/141
f 145/76/129 161/86/143 176/105/156 160/85/142
f 162/87/144 178/107/158 177/106/157 161/86/143
f 163/88/145 179/108/159 178/107/158 162/87/144
f 164/52/146 180/32/160 179/33/159 163/53/145
f 165/51/5 181/31/5 180/32/160 164/52/146
f 166/50/147 182/30/161 181/31/5 165/51/5
f 167/49/148 183/29/162 182/30/161 166/50/147
f 168/95/149 184/115/163 183/114/162 167/94/148
f 169/134/150 185/116/164 184/115/163 168/95/149
f 170/97/151 186/117/165 185/116/164 169/134/150
f 171/98/152 187/118/166 186/117/165 170/97/151
f 172/42/153 188/22/167 187/23/166 171/43/152
f 173/41/13 189/21/13 188/22/167 172/42/153
f 174/40/154 190/20/168 189/21/13 173/41/13
f 175/39/155 191/19/169 190/20/168 174/40/154
f 176/105/156 192/125/170 191/124/169 175/104/155
f 161/86/143 177/106/157 192/125/170 176/105/156
f 178/107/158 194/2/8 193/1/9 177/106/157
f 179/108/159 195/3/7 194/2/8 178/107/158
f 180/32/160 196/14/6 195/15/7 179/33/159
f 181/31/5 197/13/5 196/14/6 180/32/160
f 182/30/161 198/12/4 197/13/5 181/31/5
f 183/29/162 199/11/3 198/12/4 182/30/161
f 184/115/163 200/2/2 199/3/3 183/114/162
f 185/116/164 201/1/1 200/2/2 184/115/163
f 186/117/165 202/9/16 201/1/1 185/116/164
f 187/118/166 203/10/15 202/9/16 186/117/165
f 188/22/167 204/7/14 203/8/15 187/23/166
f 189/21/13 205/6/13 204/7/14 188/22/167
f 190/20/168 206/5/12 205/6/13 189/21/13
f 191/19/169 207/4/11 206/5/12 190/20/168
f 192/125/170 208/9/10 207/10/11 191/124/169
f 177/106/157 193/1/9 208/9/10 192/125/170
f 194/2/8 210/17/23 209/16/24 193/1/9
f 195/3/7 211/18/22 210/17/23 194/2/8
f 196/14/6 212/136/21 211/135/22 195/15/7
f 197/13/5 213/137/5 212/136/21 196/14/6
f 198/12/4 214/138/20 213/137/5 197/13/5
f 199/11/3 215/139/19 214/138/20 198/12/4
f 200/2/2 216/25/18 215/24/19 199/3/3
f 201/1/1 217/26/17 216/25/18 200/2/2
f 202/9/16 218/27/30 217/26/17 201/1/1
f 203/10/15 219/28/29 218/27/30 202/9/16
f 204/7/14 220/141/28 219/140/29 203/8/15
f 205/6/13 221/142/13 220/141/28 204/7/14
f 206/5/12 222/143/27 221/142/13 205/6/13
f 207/4/11 223/144/26 222/143/27 206/5/12
f 208/9/10 224/35/25 223/34/26 207/10/11
f 193/1/9 209/16/24 224/35/25 208/9/10
f 210/17/23 226/37/37 225/36/171 209/16/24
f 211/18/22 227/38/36 226/37/37 210/17/23
f 212/136/21 228/146/35 227/145/36 211/135/22
f 213/137/5 229/147/5 228/146/35 212/136/21
f 214/138/20 230/148/34 229/147/5 213/137/5
f 215/139/19 231/149/33 230/148/34 214/138/20
f 216/25/18 232/45/32 231/44/33 215/24/19
f 217/26/17 233/46/172 232/45/32 216/25/18
f 218/27/30 234/47/44 233/46/172 217/26/17
f 219/28/29 235/48/43 234/47/44 218/27/30
f 220/141/28 236/151/42 235/150/43 219/140/29
f 221/142/13 237/152/13 236/151/42 220/141/28
f 222/143/27 238/153/41 237/152/13 221/142/13
f 223/144/26 239/154/40 238/153/41 222/143/27
f 224/35/25 240/55/39 239/54/40 223/34/26
f 209/16/24 225/36/171 240/55/39 224/35/25
f 226/37/37 242/57/51 241/56/52 225/36/171
f 227/38/36 243/58/50 242/57/51 226/37/37
f 228/146/35 244/156/49 243/155/50 227/145/36
f 229/147/5 245/157/5 244/156/49 228/146/35
f 230/148/34 246/158/48 245/157/5 229/147/5
f 231/149/33 247/159/47 246/158/48 230/148/34
f 232/45/32 248/65/46 247/64/47 231/44/33
f 233/46/172 249/66/45 248/65/46 232/45/32
f 234/47/44 250/67/58 249/66/45 233/46/172
f 235/48/43 251/68/57 250/67/58 234/47/44
f 236/151/42 252/161/56 251/160/57 235/150/43
f 237/152/13 253/162/13 252/161/56 236/151/42
f 238/153/41 254/163/55 253/162/13 237/152/13
f 239/154/40 255/164/54 254/163/55 238/153/41
f 240/55/39 256/75/53 255/74/54 239/54/40
f 225/36/171 241/56/52 256/75/53 240/55/39
f 242/77/51 258/87/65 257/165/173 241/76/52
f 243/78/50 259/88/64 258/87/65 242/77/51
f 244/156/49 260/167/63 259/166/64 243/155/50
f 245/157/5 261/168/5 260/167/63 244/156/49
f 246/158/48 262/169/62 261/168/5 245/157/5
f 247/159/47 263/170/61 262/169/62 246/158/48
f 248/80/46 264/95/60 263/94/61 247/79/47
f 249/81/45 265/96/59 264/95/60 248/80/46
f 250/82/58 266/97/72 265/96/59 249/81/45
f 251/83/57 267/98/71 266/97/72 250/82/58
f 252/161/56 268/172/70 267/171/71 251/160/57
f 253/162/13 269/173/13 268/172/70 252/161/56
f 254/163/55 270/174/69 269/173/13 253/162/13
f 255/164/54 271/175/68 270/174/69 254/163/55
f 256/85/53 272/105/67 271/104/68 255/84/54
f 241/76/52 257/165/173 272/105/67 256/85/53
f 258/87/65 274/107/79 273/106/80 257/165/173
f 259/88/64 275/108/78 274/107/79 258/87/65
f 260/167/63 276/177/77 275/176/78 259/166/64
f 261/168/5 277/178/5 276/177/77 260/167/63
f 262/169/62 278/179/76 277/178/5 261/168/5
f 263/170/61 279/180/75 278/179/76 262/169/62
f 264/95/60 280/115/74 279/114/75 263/94/61
f 265/96/59 281/116/73 280/115/74 264/95/60
f 266/97/72 282/117/86 281/116/73 265/96/59
f 267/98/71 283/118/85 282/117/86 266/97/72
f 268/172/70 284/182/84 283/181/85 267/171/71
f 269/173/13 285/183/13 284/182/84 268/172/70
f 270/174/69 286/184/83 285/183/13 269/173/13
f 271/175/68 287/185/82 286/184/83 270/174/69
f 272/105/67 288/125/81 287/124/82 271/104/68
f 257/165/173 273/106/80 288/125/81 272/105/67
f 274/107/79 290/2/93 289/1/94 273/106/80
f 275/108/78 291/3/92 290/2/93 274/107/79
f 276/177/77 292/187/91 291/186/92 275/176/78
f 277/178/5 293/188/5 292/187/91 276/177/77
f 278/179/76 294/189/90 293/188/5 277/178/5
f 279/180/75 295/190/89 294/189/90 278/179/76
f 280/115/74 296/2/88 295/3/89 279/114/75
f 281/116/73 297/1/87 296/2/88 280/115/74
f 282/117/86 298/9/100 297/1/87 281/116/73
f 283/118/85 299/10/99 298/9/100 282/117/86
f 284/182/84 300/189/98 299/190/99 283/181/85
f 285/183/13 301/188/13 300/189/98 284/182/84
f 286/184/83 302/187/97 301/188/13 285/183/13
f 287/185/82 303/186/96 302/187/97 286/184/83
f 288/125/81 304/9/95 303/10/96 287/124/82
f 273/106/80 289/1/94 304/9/95 288/125/81
f 290/2/93 306/17/107 305/16/108 289/1/94
f 291/3/92 307/18/106 306/17/107 290/2/93
f 292/187/91 308/184/105 307/185/106 291/186/92
f 293/188/5 309/183/5 308/184/105 292/187/91
f 294/189/90 310/182/104 309/183/5 293/188/5
f 295/190/89 311/181/103 310/182/104 294/189/90
f 296/2/88 312/25/102 311/24/103 295/3/89
f 297/1/87 313/26/101 312/25/102 296/2/88
f 298/9/100 314/27/114 313/26/101 297/1/87
f 299/10/99 315/28/113 314/27/114 298/9/100
f 300/189/98 316/179/112 315/180/113 299/190/99
f 301/188/13 317/178/13 316/179/112 300/189/98
f 302/187/97 318/177/111 317/178/13 301/188/13
f 303/186/96 319/176/110 318/177/111 302/187/97
f 304/9/95 320/35/109 319/34/110 303/10/96
f 289/1/94 305/16/108 320/35/109 304/9/95
f 306/17/107 322/37/121 321/36/122 305/16/108
f 307/18/106 323/38/120 322/37/121 306/17/107
f 308/184/105 324/174/119 323/175/120 307/185/106
f 309/183/5 325/173/5 324/174/119 308/184/105
f 310/182/104 326/172/118 325/173/5 309/183/5
f 311/181/103 327/171/117 326/172/118 310/182/104
f 312/25/102 328/45/116 327/44/117 311/24/103
f 313/26/101 329/191/115 328/45/116 312/25/102
f 314/27/114 330/47/128 329/191/115 313/26/101
f 315/28/113 331/48/127 330/47/128 314/27/114
f 316/179/112 332/169/126 331/170/127 315/180/113
f 317/178/13 333/168/13 332/169/126 316/179/112
f 318/177/111 334/167/125 333/168/13 317/178/13
f 319/176/110 335/166/124 334/167/125 318/177/111
f 320/35/109 336/55/123 335/54/124 319/34/110
f 305/16/108 321/36/122 336/55/123 320/35/109
f 322/37/121 338/57/135 337/56/136 321/36/122
f 323/38/120 339/58/134 338/57/135 322/37/121
f 324/174/119 340/163/133 339/164/134 323/175/120
f 325/173/5 341/162/5 340/163/133 324/174/119
f 326/172/118 342/161/132 341/162/5 325/173/5
f 327/171/117 343/160/131 342/161/132 326/172/118
f 328/45/116 344/65/130 343/64/131 327/44/117
f 329/191/115 345/66/129 344/65/130 328/45/116
f 330/47/128 346/67/142 345/66/129 329/191/115
f 331/48/127 347/68/141 346/67/142 330/47/128
f 332/169/126 348/158/140 347/159/141 331/170/127
f 333/168/13 349/157/13 348/158/140 332/169/126
f 334/167/125 350/156/139 349/157/13 333/168/13
f 335/166/124 351/155/138 350/156/139 334/167/125
f 336/55/123 352/75/137 351/74/138 335/54/124
f 321/36/122 337/56/136 352/75/137 336/55/123
f 338/77/135 354/87/149 353/86/150 337/76/136
f 339/78/134 355/88/148 354/87/149 338/77/135
f 340/163/133 356/153/147 355/154/148 339/164/134
f 341/162/5 357/192/5 356/153/147 340/163/133
f 342/161/132 358/151/146 357/192/5 341/162/5
f 343/160/131 359/150/145 358/151/146 342/161/132
f 344/80/130 360/95/144 359/94/145 343/79/131
f 345/81/129 361/134/143 360/95/144 344/80/130
f 346/82/142 362/97/156 361/134/143 345/81/129
f 347/83/141 363/98/155 362/97/156 346/82/142
f 348/158/140 364/148/154 363/149/155 347/159/141
f 349/157/13 365/193/13 364/148/154 348/158/140
f 350/156/139 366/146/153 365/193/13 349/157/13
f 351/155/138 367/145/152 366/146/153 350/156/139
f 352/85/137 368/105/151 367/104/152 351/84/138
f 337/76/136 353/86/150 368/105/151 352/85/137
f 354/87/149 370/107/163 369/106/164 353/86/150
f 355/88/148 371/108/162 370/107/163 354/87/149
f 356/153/147 372/143/161 371/144/162 355/154/148
f 357/192/5 373/142/5 372/143/161 356/153/147
f 358/151/146 374/141/160 373/142/5 357/192/5
f 359/150/145 375/140/159 374/141/160 358/151/146
f 360/95/144 376/115/158 375/114/159 359/94/145
f 361/134/143 377/116/157 376/115/158 360/95/144
f 362/97/156 378/117/170 377/116/157 361/134/143
f 363/98/155 379/118/169 378/117/170 362/97/156
f 364/148/154 380/138/168 379/139/169 363/149/155
f 365/193/13 381/137/13 380/138/168 364/148/154
f 366/146/153 382/136/167 381/137/13 365/193/13
f 367/145/152 383/135/166 382/136/167 366/146/153
f 368/105/151 384/125/165 383/124/166 367/104/152
f 353/86/150 369/106/164 384/125/165 368/105/151
f 370/107/163 2/2/2 1/1/1 369/106/164
f 371/108/162 3/3/3 2/2/2 370/107/163
f 372/143/161 4/5/4 3/4/3 371/144/162
f 373/142/5 5/6/5 4/5/4 372/143/161
f 374/141/160 6/7/6 5/6/5 373/142/5
f 375/140/159 7/8/7 6/7/6 374/141/160
f 376/115/158 8/2/8 7/3/7 375/114/159
f 377/116/157 9/1/9 8/2/8 376/115/158
f 378/117/170 10/9/10 9/1/9 377/116/157
f 379/118/169 11/10/11 10/9/10 378/117/170
f 380/138/168 12/12/12 11/11/11 379/139/169
f 381/137/13 13/13/13 12/12/12 380/138/168
f 382/136/167 14/14/14 13/13/13 381/137/13
f 383/135/166 15/15/15 14/14/14 382/136/167
f 384/125/165 16/9/16 15/10/15 383/124/166
f 369/106/164 1/1/1 16/9/16 384/125/165

